<svg width="960" height="960" viewBox="0 0 960 960" fill="none" xmlns="http://www.w3.org/2000/svg">
<g clip-path="url(#clip0_46_7763)">
<g clip-path="url(#clip1_46_7763)">
<path fill-rule="evenodd" clip-rule="evenodd" d="M632.063 781.783C631.974 781.849 631.897 781.905 631.808 781.96C613.29 794.495 593.326 804.75 572.35 812.5L571.808 811.051L550.9 775.8L550.657 775.368C534.083 784.817 515.617 791.488 496.93 789.076C492.555 788.506 488.255 787.46 484.107 785.956C461.913 777.935 444.631 757.665 433.456 736.246C401.625 675.239 405.856 601.146 424.782 534.982C436.797 493.005 454.655 452.146 482.127 418.213C509.599 384.28 547.313 357.6 590 348.453C632.687 339.306 680.227 349.239 712.323 378.835C741.366 405.635 755.406 445.252 761.023 484.374C777.211 597.093 726.184 717.7 632.063 781.783ZM556.717 372.508C557.174 373.303 556.901 374.317 556.107 374.775C498.752 407.797 456.077 465.375 441.166 529.854C440.959 530.747 440.068 531.304 439.175 531.097C438.282 530.891 437.726 529.999 437.932 529.107C453.051 463.73 496.298 405.38 554.451 371.898C555.245 371.441 556.26 371.714 556.717 372.508ZM533.174 456.115C547.002 447.086 564.011 442.41 580.028 445.523C580.928 445.698 581.799 445.111 581.973 444.211C582.148 443.311 581.561 442.44 580.661 442.265C563.612 438.952 545.735 443.949 531.359 453.336C516.984 462.722 505.786 476.214 496.783 490.61L496.78 490.615C472.576 529.635 462.987 575.971 469.716 621.391C469.85 622.298 470.694 622.924 471.601 622.79C472.507 622.656 473.133 621.812 472.999 620.905C466.386 576.262 475.81 530.719 499.599 492.368C508.456 478.205 519.346 465.144 533.174 456.115Z" fill="url(#paint0_linear_46_7763)"/>
<path d="M920.245 766.637C921.683 772.047 918.63 777.867 914.193 781.286C909.756 784.705 904.202 786.254 898.781 787.648C810.358 810.373 718.549 815.817 627.415 821.148C590.727 823.305 554.039 825.455 517.351 827.598L517.274 827.122C536.06 824.029 554.504 819.132 572.35 812.5C593.326 804.75 613.29 794.497 631.808 781.963C631.897 781.908 631.974 781.852 632.063 781.786C701.785 780.054 771.248 772.62 839.756 759.559C860.921 755.521 882.684 750.94 903.816 755.167C910.73 756.535 918.43 759.821 920.245 766.637Z" fill="#171717"/>
<path d="M258.853 275.386C262.084 279.103 261.796 290.477 257.503 291.329C255.877 291.661 254.239 289.769 253.509 287.069C251.8 280.8 254.882 270.794 258.853 275.386Z" fill="#171717"/>
<path d="M253.465 578.03C260.491 577.864 268.014 583.496 267.339 590.499C266.974 594.382 264.252 597.713 260.999 599.87C258.615 601.435 255.933 602.491 253.121 602.97C255.277 599.174 256.421 594.889 256.444 590.524C256.468 586.159 255.369 581.861 253.254 578.043C253.324 578.033 253.395 578.029 253.465 578.03Z" fill="#171717"/>
<path d="M96.6228 340.309C96.7888 343.562 95.5608 346.892 93.6138 348.409C93.1131 348.899 92.4425 349.178 91.7417 349.186C91.0408 349.194 90.3639 348.932 89.8518 348.453C88.8668 347.453 88.4358 345.61 88.2588 343.861C87.9579 341.55 88.1311 339.203 88.7678 336.961C91.0128 329.976 96.2688 333.748 96.6228 340.309Z" fill="#171717"/>
<path d="M483.904 788.51C419.567 796.775 352.022 775.443 304.104 731.741C279.243 709.06 258.709 677.694 261.452 644.159C265.413 595.765 315.92 557.473 310.352 509.245C309.176 499.616 305.713 490.41 300.252 482.393C287.783 463.783 265.788 450.971 243.096 449.267C225.836 447.973 208.731 452.929 194.149 462.09C171.368 476.396 154.706 500.958 153.135 527.943C151.829 550.248 159.419 572.043 167.817 592.743C198.188 667.591 242.631 739.672 309.668 784.725C369.878 825.186 445.755 838.961 517.268 827.125C536.056 824.031 554.502 819.133 572.35 812.5C593.326 804.75 613.29 794.497 631.808 781.963C631.897 781.908 631.974 781.852 632.063 781.786C726.184 717.704 777.211 597.095 761.024 484.376C755.404 445.254 741.363 405.634 712.324 378.837C680.224 349.237 632.697 339.294 590.001 348.455C547.305 357.616 509.601 384.28 482.127 418.213C454.653 452.146 436.799 493 424.778 534.979C405.848 601.142 401.621 675.237 433.452 736.243C444.627 757.663 461.909 777.932 484.103 785.953C488.251 787.456 492.551 788.503 496.926 789.073C515.613 791.485 534.079 784.813 550.653 775.365C553.729 773.617 556.753 771.765 559.681 769.865C625.381 727.247 669.115 652.499 674.06 574.343C676.527 535.453 669.125 494.443 645.139 463.726C621.153 433.009 578.213 415.454 541.525 428.576C509.794 439.928 488.96 470.608 476.414 501.876C455.16 555.272 451.752 614.112 466.7 669.606C470.661 684.188 476.06 698.726 485.608 710.432C495.156 722.138 509.499 730.723 524.599 730.325C545.299 729.783 561.999 713.298 573.59 696.148C590.913 670.495 602.051 641.175 606.129 610.491C608.519 592.435 607.49 571.767 594.202 559.298C577.584 543.72 549.592 549.075 531.569 563.004C522.132 570.386 514.312 579.629 508.597 590.16C502.881 600.691 499.391 612.285 498.344 624.221C497.149 638.914 500.07 654.492 509.331 665.954C518.592 677.416 535.022 683.634 548.774 678.346C562.526 673.058 570.504 654.78 562.781 642.222C555.058 629.664 532.3 630.483 527.41 644.379" stroke="#171717" stroke-width="3.319" stroke-linecap="round" stroke-linejoin="round"/>
<path d="M190.853 558.07C182.798 566.17 181.382 580.021 187.633 589.57C193.884 599.119 207.139 603.378 217.782 599.24C224.332 596.695 229.482 591.573 234.832 587.014C240.143 582.514 246.305 578.296 253.253 578.041C253.323 578.032 253.393 578.028 253.463 578.03C260.489 577.864 268.012 583.496 267.337 590.499C266.972 594.382 264.25 597.713 260.997 599.87C258.613 601.435 255.931 602.491 253.119 602.97C248.986 603.699 244.728 603.176 240.893 601.47" stroke="#171717" stroke-width="3.319" stroke-linecap="round" stroke-linejoin="round"/>
<path d="M220.97 513.283C219.958 511.591 218.473 510.232 216.698 509.373C214.923 508.514 212.936 508.192 210.981 508.447C209.026 508.702 207.188 509.523 205.693 510.808C204.199 512.094 203.112 513.788 202.567 515.683C202.023 517.578 202.044 519.591 202.628 521.474C203.212 523.358 204.334 525.029 205.855 526.283C207.376 527.537 209.231 528.32 211.191 528.534C213.151 528.748 215.131 528.385 216.887 527.489" stroke="#171717" stroke-width="3.319" stroke-linecap="round" stroke-linejoin="round"/>
<path d="M280.749 504.3C287.756 497.463 294.274 490.143 300.255 482.393C334.28 437.985 350.688 382.567 346.325 326.793C345.396 315.552 343.504 304.034 337.618 294.42C331.865 285.027 321.531 277.769 310.578 278.3C310.312 278.3 310.036 278.322 309.77 278.344" stroke="#171717" stroke-width="3.319" stroke-linecap="round" stroke-linejoin="round"/>
<path d="M190.08 483.665C191.762 476.54 193.119 469.349 194.152 462.09C198.585 431.169 197.132 399.689 189.87 369.308C183.951 344.658 172.754 319.199 150.759 306.608C144.909 303.279 138.489 301.069 131.829 300.091C117.877 297.978 103.151 301.098 91.9879 309.706C75.5249 322.406 68.7879 346.87 77.8149 365.612C78.0249 366.055 78.2459 366.486 78.4789 366.918C88.0049 384.797 111.979 394.058 130.479 385.66C141.787 380.527 149.8 369.784 153.1 357.747C154.342 353.242 154.898 348.576 154.749 343.906C154.174 326.945 144.858 310.991 131.836 300.093L131.615 299.905" stroke="#171717" stroke-width="3.319" stroke-linecap="round" stroke-linejoin="round"/>
<path d="M310.578 278.3C310.81 263.685 295.741 253.97 281.646 252.709C266.511 251.348 250.634 257.987 241.882 270.409C238.686 275.041 236.525 280.308 235.545 285.85C234.566 291.392 234.791 297.08 236.206 302.528C237.201 306.343 238.852 309.956 241.085 313.205C249.737 325.685 267.572 331.239 281.391 324.922C291.88 320.131 300.233 308.636 305.4 296.875C307.406 292.33 308.966 287.602 310.058 282.757C310.382 281.293 310.557 279.799 310.578 278.3Z" stroke="#171717" stroke-width="3.319" stroke-linecap="round" stroke-linejoin="round"/>
<path d="M236.748 302.382L305.4 296.872C305.489 296.861 305.566 296.861 305.654 296.85" stroke="#171717" stroke-width="3.319" stroke-linecap="round" stroke-linejoin="round"/>
<path d="M79.5176 366.442C102.473 358.709 126.742 355.643 150.9 357.425" stroke="#171717" stroke-width="3.319" stroke-linecap="round" stroke-linejoin="round"/>
<path d="M571.808 811.048L550.899 775.8" stroke="#171717" stroke-width="3.319" stroke-linecap="round" stroke-linejoin="round"/>
<path d="M517.352 827.6C554.04 825.454 590.728 823.304 627.416 821.15C718.55 815.817 810.359 810.374 898.782 787.65C904.203 786.256 909.769 784.718 914.194 781.288C918.619 777.858 921.684 772.05 920.246 766.639C918.431 759.824 910.731 756.539 903.816 755.166C882.684 750.94 860.921 755.52 839.756 759.558C771.247 772.62 701.784 780.054 632.063 781.785C631.786 781.796 631.51 781.796 631.233 781.807" stroke="#171717" stroke-width="3.319" stroke-linecap="round" stroke-linejoin="round"/>
<path d="M253.066 603.067C253.089 603.036 253.108 603.002 253.121 602.967C255.277 599.171 256.421 594.885 256.445 590.521C256.468 586.156 255.369 581.858 253.254 578.04C253.232 578.007 253.21 577.963 253.188 577.929" stroke="#171717" stroke-width="3.319" stroke-linecap="round" stroke-linejoin="round"/>
<path d="M253.51 287.07C254.24 289.77 255.878 291.662 257.504 291.33C261.797 290.478 262.084 279.104 258.854 275.387C254.882 270.794 251.8 280.8 253.51 287.07Z" stroke="#171717" stroke-width="3.319" stroke-linecap="round" stroke-linejoin="round"/>
<path d="M88.7669 336.957C88.1301 339.198 87.9569 341.546 88.2579 343.857C88.4349 345.605 88.8669 347.457 89.8509 348.449C90.363 348.927 91.0399 349.19 91.7407 349.181C92.4415 349.173 93.112 348.895 93.6129 348.405C95.5599 346.889 96.7879 343.559 96.6219 340.305C96.2689 333.748 91.0129 329.976 88.7669 336.957Z" stroke="#171717" stroke-width="3.319" stroke-linecap="round" stroke-linejoin="round"/>
<path d="M129.828 487.684L115.77 464.254" stroke="#171717" stroke-width="3.319" stroke-linecap="round" stroke-linejoin="round"/>
<path d="M105.655 508.635L40.5996 490.723" stroke="#171717" stroke-width="3.319" stroke-linecap="round" stroke-linejoin="round"/>
<path d="M112 530.266C104.208 532.893 96.9731 536.946 90.6631 542.218" stroke="#171717" stroke-width="3.319" stroke-linecap="round" stroke-linejoin="round"/>
<path d="M602.148 374.7C601.968 365.675 601.789 356.651 601.609 347.626" stroke="#171717" stroke-width="3.319" stroke-linecap="round" stroke-linejoin="round"/>
<path d="M588.6 387.205C589.992 374.583 590.515 361.881 590.165 349.187" stroke="#171717" stroke-width="3.319" stroke-linecap="round" stroke-linejoin="round"/>
<path d="M699.458 414.335L658.825 411.52" stroke="#171717" stroke-width="3.319" stroke-linecap="round" stroke-linejoin="round"/>
<path d="M676.556 433.568L678.856 392.94" stroke="#171717" stroke-width="3.319" stroke-linecap="round" stroke-linejoin="round"/>
<path d="M738.552 531.056L762.907 519.356" stroke="#171717" stroke-width="3.319" stroke-linecap="round" stroke-linejoin="round"/>
<path d="M741.086 541.325L762.957 529.356" stroke="#171717" stroke-width="3.319" stroke-linecap="round" stroke-linejoin="round"/>
<path d="M687.048 564.856L707.886 543.52" stroke="#171717" stroke-width="3.319" stroke-linecap="round" stroke-linejoin="round"/>
<path d="M705.444 564.561L691.653 542.33" stroke="#171717" stroke-width="3.319" stroke-linecap="round" stroke-linejoin="round"/>
<path d="M664.544 627.693L710.365 628.557" stroke="#171717" stroke-width="3.319" stroke-linecap="round" stroke-linejoin="round"/>
<path d="M661.42 637.948L692.658 638.14" stroke="#171717" stroke-width="3.319" stroke-linecap="round" stroke-linejoin="round"/>
<path d="M672.385 731.354C673.03 722.852 672.834 714.306 671.799 705.843" stroke="#171717" stroke-width="3.319" stroke-linecap="round" stroke-linejoin="round"/>
<path d="M658.814 718.836C668.078 718.518 677.299 717.441 686.386 715.615" stroke="#171717" stroke-width="3.319" stroke-linecap="round" stroke-linejoin="round"/>
<path d="M589.264 803.93L564.328 767.446" stroke="#171717" stroke-width="3.319" stroke-linecap="round" stroke-linejoin="round"/>
<path d="M604.125 627.1L626.525 623" stroke="#171717" stroke-width="3.319" stroke-linecap="round" stroke-linejoin="round"/>
<path d="M604.628 616.209C614.183 611.33 624.674 608.561 635.392 608.087" stroke="#171717" stroke-width="3.319" stroke-linecap="round" stroke-linejoin="round"/>
<path d="M631.933 683.876C628.204 676.446 624.055 669.234 619.505 662.276" stroke="#171717" stroke-width="3.319" stroke-linecap="round" stroke-linejoin="round"/>
<path d="M616.073 681.832L637.059 664.321" stroke="#171717" stroke-width="3.319" stroke-linecap="round" stroke-linejoin="round"/>
<path d="M584.948 749.026C583.19 744.971 580.679 741.285 577.548 738.166" stroke="#171717" stroke-width="3.319" stroke-linecap="round" stroke-linejoin="round"/>
<path d="M576.568 755.3C575.399 750.531 572.654 746.296 568.778 743.281" stroke="#171717" stroke-width="3.319" stroke-linecap="round" stroke-linejoin="round"/>
<path d="M459.377 732.353C465.135 728.504 470.625 724.268 475.81 719.676" stroke="#171717" stroke-width="3.319" stroke-linecap="round" stroke-linejoin="round"/>
<path d="M471.063 735.7L460.216 716.906" stroke="#171717" stroke-width="3.319" stroke-linecap="round" stroke-linejoin="round"/>
<path d="M493.586 567.681C489.244 565.349 485.15 562.58 481.368 559.419" stroke="#171717" stroke-width="3.319" stroke-linecap="round" stroke-linejoin="round"/>
<path d="M482.3 573.063L492.8 554.889" stroke="#171717" stroke-width="3.319" stroke-linecap="round" stroke-linejoin="round"/>
<path d="M496.962 464.153C502.967 468.286 508.378 473.222 513.043 478.825" stroke="#171717" stroke-width="3.319" stroke-linecap="round" stroke-linejoin="round"/>
<path d="M504.294 454.764L521.369 471.017" stroke="#171717" stroke-width="3.319" stroke-linecap="round" stroke-linejoin="round"/>
<path d="M569.25 596.769L560.689 581.393" stroke="#171717" stroke-width="3.319" stroke-linecap="round" stroke-linejoin="round"/>
<path d="M556.5 595.187C562.06 591.601 567.146 587.329 571.638 582.472" stroke="#171717" stroke-width="3.319" stroke-linecap="round" stroke-linejoin="round"/>
<path d="M590.989 503.832L592.696 473.367" stroke="#171717" stroke-width="3.319" stroke-linecap="round" stroke-linejoin="round"/>
<path d="M578.046 491.884C588.033 488.873 598.402 487.313 608.833 487.252" stroke="#171717" stroke-width="3.319" stroke-linecap="round" stroke-linejoin="round"/>
<path d="M510.68 273.892C506.641 267.392 502.48 260.502 502.17 252.853C501.86 245.204 506.97 236.763 514.608 236.271" stroke="#171717" stroke-width="3.319" stroke-linecap="round" stroke-linejoin="round"/>
<path d="M538.26 267.526C532.863 256.308 529.75 244.131 529.1 231.7L547.33 222.783" stroke="#171717" stroke-width="3.319" stroke-linecap="round" stroke-linejoin="round"/>
<path d="M584.625 220.573C569.604 218.864 555.725 235.573 560.158 250.023C564.591 264.473 585.451 270.523 596.93 260.689C608.409 250.855 605.623 229.311 592.019 222.717" stroke="#171717" stroke-width="3.319" stroke-linecap="round" stroke-linejoin="round"/>
<path d="M624.204 258.182C621.451 244.106 618.698 230.029 615.944 215.953L636.022 207.721" stroke="#171717" stroke-width="3.319" stroke-linecap="round" stroke-linejoin="round"/>
<path d="M677.614 205.029C689.42 207.552 701.691 206.799 713.099 202.85" stroke="#171717" stroke-width="3.319" stroke-linecap="round" stroke-linejoin="round"/>
<path d="M662.81 184.591L698.91 129.361" stroke="#171717" stroke-width="3.319" stroke-linecap="round" stroke-linejoin="round"/>
<path d="M637.607 179.471C637.931 172.938 638.253 166.404 638.575 159.871" stroke="#171717" stroke-width="3.319" stroke-linecap="round" stroke-linejoin="round"/>
<path d="M473.711 314.837L476.567 336.595" stroke="#171717" stroke-width="3.319" stroke-linecap="round" stroke-linejoin="round"/>
<path d="M437.899 314.791L401.23 373.705" stroke="#171717" stroke-width="3.319" stroke-linecap="round" stroke-linejoin="round"/>
<path d="M420.129 295.091C416.069 293.957 411.803 293.773 407.661 294.554C403.519 295.334 399.612 297.058 396.243 299.591" stroke="#171717" stroke-width="3.319" stroke-linecap="round" stroke-linejoin="round"/>
<path d="M492.874 282.16C489.324 285.492 485.694 288.878 481.289 290.95C476.884 293.022 471.489 293.6 467.224 291.255C462.815 288.832 460.487 283.923 458.466 279.316C449.408 258.675 440.895 237.807 432.925 216.71L459.87 204.33" stroke="#171717" stroke-width="3.319" stroke-linecap="round" stroke-linejoin="round"/>
<path d="M448.507 256.982L466.55 248.949" stroke="#171717" stroke-width="3.319" stroke-linecap="round" stroke-linejoin="round"/>
<g opacity="0.1">
<path d="M503.94 723.737C508.751 728.816 517.679 729.142 524.24 728.752C531.661 728.243 538.902 726.236 545.526 722.852C559.991 715.652 570.665 702.576 578.187 688.563C586.736 672.64 592.364 655.053 597.397 637.763C599.918 628.832 601.782 619.728 602.975 610.524C604.208 601.608 605.433 592.424 604.869 583.412C604.269 573.874 601.387 564.771 595.116 557.444C590.608 552.176 580.661 544.644 574.266 551.133C573.688 551.747 573.319 552.528 573.211 553.365C573.103 554.201 573.263 555.051 573.666 555.791C575.978 561.05 583.102 562.379 586.633 566.937C590.827 572.351 592.133 579.437 592.482 586.114C593.298 601.863 590.472 617.744 587.842 633.202C585.223 648.534 580.603 663.456 574.099 677.586C568.215 690.344 560.377 703.086 548.77 711.407C542.712 715.764 535.811 718.81 528.509 720.35C524.61 721.187 520.61 721.456 516.633 721.15C512.88 720.85 509.353 719.574 505.56 719.82C505.112 719.834 504.678 719.976 504.309 720.231C503.94 720.486 503.652 720.842 503.481 721.256C503.309 721.67 503.261 722.125 503.342 722.566C503.423 723.007 503.629 723.415 503.936 723.741L503.94 723.737Z" fill="#171717"/>
</g>
<g opacity="0.1">
<path d="M497 790.313C504.351 790.433 511 787.532 517.778 784.883C524.889 782.104 531.873 779.019 538.687 775.574C551.947 768.937 564.533 761.034 576.271 751.974C600.291 733.442 620.605 710.552 636.151 684.5C652.611 656.486 663.482 625.546 668.162 593.392C672.919 560.934 672.312 526.603 662.293 495.129C656.853 478.039 648.405 461.786 636.267 448.485C625.203 436.36 610.147 424.097 592.991 424.111C587.4 424.111 583.286 431.987 588.091 435.954C598.291 444.388 610.091 450.383 619.453 459.896C628.945 469.608 636.513 481.026 641.761 493.55C653.461 521.297 655.173 552.958 652.283 582.617C646.622 640.724 617.514 695.551 573.812 733.989C562.197 744.205 549.564 752.719 536.64 761.149C530.201 765.193 523.512 768.824 516.613 772.021C509.404 775.509 501.279 777.767 494.921 782.621C491.836 784.978 492.569 790.235 497.003 790.308L497 790.313Z" fill="#171717"/>
</g>
<g opacity="0.1">
<path d="M569.706 810.429C605.106 800.501 635.906 779.238 662.448 754.242C689.179 729.145 711.181 699.449 727.407 666.568C745.384 629.865 756.079 590.027 758.9 549.255C761.6 509.776 757.362 467.804 742.813 430.786C734.933 410.734 723.675 390.17 707.203 375.823C699.6 369.145 691.258 363.36 682.34 358.579C677.629 356.101 672.64 353.534 667.377 352.593C662.216 351.722 656.967 351.487 651.749 351.893C647.03 352.205 644.123 359.158 649.123 361.588C656.561 365.204 663.817 369.305 671.17 373.112C678.555 376.812 685.327 381.625 691.249 387.382C703.849 399.926 713.891 413.36 721.375 429.589C736.83 463.1 741.7 502.242 740.737 538.823C738.912 611.84 709.585 681.476 658.624 733.8C631.583 761.434 599.109 782.194 566.13 801.945C561.661 804.622 564.567 811.869 569.706 810.427V810.429Z" fill="#171717"/>
</g>
<g opacity="0.1">
<path d="M229.449 699.685L229.129 700.332C228.675 701.09 228.436 701.957 228.436 702.84C228.436 703.724 228.675 704.59 229.129 705.348C231.988 709.784 234.276 714.62 237.416 718.859C240.783 723.406 244.445 727.734 248.244 731.923C255.408 739.827 263.008 747.324 271.008 754.381C287.514 768.935 303.956 782.602 323.334 793.245C364.461 815.833 411.186 828.801 458.172 829.621C472.166 829.865 486.654 829.655 500.414 826.905C506.914 825.605 513.286 823.893 519.686 822.167C526.408 820.354 533.461 818.622 539.359 814.807C540.038 814.382 540.562 813.75 540.854 813.004C541.146 812.258 541.19 811.438 540.981 810.665C540.772 809.892 540.319 809.206 539.691 808.71C539.062 808.213 538.29 807.932 537.49 807.907C531.867 807.414 526.212 808.307 520.613 808.895C514.64 809.521 508.647 809.73 502.644 809.895C490.853 810.225 479.069 811.031 467.266 810.895C444.452 810.725 421.735 807.917 399.566 802.528C378.419 797.366 357.943 789.763 338.551 779.873C329.542 775.247 320.788 770.108 312.178 764.782C303.608 759.482 294.839 754.359 286.892 748.15C277.797 740.904 269.206 733.048 261.179 724.634C257.099 720.434 253.121 716.118 249.191 711.777C245.261 707.436 240.739 703.763 236.93 699.323C236.314 698.694 235.54 698.243 234.689 698.018C233.838 697.793 232.942 697.802 232.096 698.045L231.525 698.098C231.055 698.108 230.601 698.267 230.228 698.551C229.854 698.836 229.58 699.231 229.446 699.681L229.449 699.685Z" fill="#171717"/>
</g>
</g>
</g>
<defs>
<linearGradient id="paint0_linear_46_7763" x1="587.02" y1="345.172" x2="585.431" y2="809.95" gradientUnits="userSpaceOnUse">
<stop stop-color="#B7B7B7"/>
<stop offset="1" stop-color="#6F6F6F"/>
</linearGradient>
<clipPath id="clip0_46_7763">
<rect width="960" height="960" fill="white"/>
</clipPath>
<clipPath id="clip1_46_7763">
<rect width="885" height="706" fill="white" transform="translate(38 127)"/>
</clipPath>
</defs>
</svg>
