<svg xmlns="http://www.w3.org/2000/svg" fill="none" viewBox="0 0 400 400" height="400" width="400" id="no-results-light">
  <g id="no-results-light">
    <g id="window">
      <path id="vector" fill="#ffffff" fill-rule="evenodd" d="M124.976 19.94c-10.056 -0.274 -88.448 2.208 -93.38 2.62 -4.65 0.39 -9.318 0.788 -13.074 3.928 -7.846 6.56 -7.424 16.564 -7.37 25.956 0.07 12.26 2.69 198.054 2.544 204.244 -0.27 11.494 -1.656 29.986 7.81 39.26 8.646 8.47 54.666 3.808 66.144 3.66 8.704 -0.114 99.066 -0.564 114.404 -1.032 5.686 -0.174 100.996 1.486 142.22 -0.136 13.618 -0.536 42.07 3.476 44.312 -16.832 0.856 -7.748 1.578 -15.092 1.07 -22.534 -1.046 -15.356 -0.842 -36.558 -1.334 -177.43 0 0 0.998 -28.948 -1.212 -43.142 -0.976 -6.266 -4.862 -13.68 -11.178 -16.064 -3.404 -1.284 -7.3 -1.014 -10.846 -1.04 -3.106 -0.02 -6.196 -0.452 -9.302 -0.268 -10.67 0.63 -21.34 0.09 -31.922 0.24 -19.988 0.286 -39.662 1.018 -59.668 0.434 -46.382 -1.354 -92.818 -0.59 -139.218 -1.862Z" clip-rule="evenodd" stroke-width="1"></path>
      <path id="vector_2" fill="#fafafa" fill-rule="evenodd" d="M387.782 44.112c-0.334 -6.566 -1.512 -14.976 -8.354 -20.224 -4.09 -3.14 -13.198 -2.254 -19.62 -2.39 -19.602 -0.414 -39.206 0.04 -59.3 0.012 -232.482 -0.352 -168.616 -2.716 -270.154 1.384 -4.44 0.18 -9.392 0.434 -12.794 3.718 -2.968 2.868 -4.56 7.686 -5.422 11.61a18.664 18.664 0 0 0 0.158 8.46c21.744 -0.17 353.742 -1.74 375.486 -2.57Z" clip-rule="evenodd" stroke-width="1"></path>
      <path id="vector_3" fill="#ffffff" fill-rule="evenodd" d="M37.35 33.04c-1.202 -3.434 -4.704 -5.708 -8.264 -4.082 -2.29 1.048 -4.3 3.66 -3.948 6.344 0.228 1.73 1.858 4.228 4.862 5.232 0.63 0.212 2.036 0.608 4.402 -0.514 3.01 -1.428 3.48 -5.46 2.948 -6.982Z" clip-rule="evenodd" stroke-width="1"></path>
      <path id="vector_4" fill="#ffffff" fill-rule="evenodd" d="M55.848 28.83c-4.458 -1.698 -8.988 2.562 -8.474 6.474 0.226 1.726 1.854 4.224 4.862 5.232 0.63 0.212 2.036 0.608 4.402 -0.514 2.194 -1.04 2.746 -2.942 2.984 -4.262 0.16 -0.888 0.262 -1.864 -0.036 -2.718 -0.574 -1.642 -2.18 -3.618 -3.736 -4.21l-0.002 -0.002Z" clip-rule="evenodd" stroke-width="1"></path>
      <path id="vector_5" fill="#ffffff" fill-rule="evenodd" d="M74.732 28.958c-3.15 1.44 -5.374 5.196 -2.844 8.852 0.938 1.354 2.216 2.21 3.756 2.726 0.63 0.212 2.036 0.608 4.4 -0.514 2.196 -1.04 2.748 -2.942 2.986 -4.262 0.16 -0.888 0.26 -1.864 -0.036 -2.72 -1.226 -3.5 -4.724 -5.7 -8.262 -4.082Z" clip-rule="evenodd" stroke-width="1"></path>
      <path id="vector_6" fill="#171717" fill-rule="evenodd" d="M389.99 222.374c-0.16 -163.648 0.232 -172.564 -1.528 -184.08 -1.11 -6.976 -5.354 -14.61 -12.056 -17.126 -3.636 -1.372 -7.64 -1.096 -11.32 -1.12 -3.102 -0.016 -6.162 -0.456 -9.372 -0.26 -10.662 0.636 -21.266 0.098 -31.87 0.256 -53.728 0.792 -0.12 2.78 -198.834 -1.16 -10.274 -0.202 -88.37 2.146 -93.502 2.572 -5.038 0.42 -9.762 0.888 -13.706 4.176 -8.02 6.714 -7.824 16.476 -7.792 26.818 0.018 5.176 2.684 200.638 2.598 204.214 -0.302 13.244 -1.32 30.708 8.16 40.036 3.318 3.238 11.506 4.662 21.158 5.156 16.798 0.86 288.328 -1.054 302.754 -1.616 13.844 -0.538 42.25 3.794 44.624 -17.612 0.782 -7.442 0.692 -52.77 0.684 -60.252l0.002 -0.002ZM19.242 27.344c3.462 -2.922 7.934 -3.3 12.458 -3.676 2.878 -0.242 89.116 -2.776 93.258 -2.666 0 -0.2 148.782 2.42 163.122 2.298 11.916 -0.106 23.796 -0.432 35.8 -0.596 10.676 -0.146 21.126 0.408 31.992 -0.222 2.916 -0.176 6.158 0.256 9.196 0.278 3.41 0.02 7.218 -0.24 10.372 0.956 5.69 2.144 9.372 8.966 10.302 15 0.214 1.38 0.394 2.912 0.552 4.534 -2.046 0.04 -368.604 2.33 -373.99 2.39 0.192 -7.208 1.398 -13.672 6.938 -18.292v-0.004ZM387.04 282.38c-2.012 18.558 -26.546 14.304 -42.802 14.948 -14.39 0.572 -284.014 2.578 -301.822 2.636 -8.56 0.028 -17.312 -1.962 -20.172 -4.766 -8.944 -8.764 -7.798 -26.048 -7.476 -38.484 0.088 -3.578 -2.502 -207.37 -2.498 -208.924 5.214 -0.026 371.658 -2.02 374.226 -2.244 0.848 10.864 0.59 26.194 0.44 36.054 -2.494 165.39 0.878 193.526 0.106 200.778l-0.002 0.002Z" clip-rule="evenodd" stroke-width="1"></path>
      <path id="vector_7" fill="#171717" fill-rule="evenodd" d="M28.62 27.938c-2.246 1.06 -4.04 3.538 -4.448 5.188 -0.986 3.972 3.03 9.248 7.706 8.876 1.846 -0.146 4.32 -1.17 5.58 -3.042 1.204 -1.788 2.016 -5.174 0.416 -7.69 -2.94 -4.628 -6.408 -5.064 -9.254 -3.332Zm7.02 4.32c1.406 2.436 0.662 6.638 -3.584 7.24 -1.858 0.264 -4.654 -1.228 -5.684 -3.52 -0.89 -1.976 0.934 -6.08 4.646 -6.17 1.476 -0.036 3.48 0.476 4.62 2.45Z" clip-rule="evenodd" stroke-width="1"></path>
      <path id="vector_8" fill="#171717" fill-rule="evenodd" d="M53.534 27.032c-2.094 0.188 -5.01 1.816 -6.534 4.708 -0.586 1.114 -0.95 2.024 -0.614 3.69 0.11 1.058 0.634 2.11 1.192 3 1.016 1.62 2.476 2.686 4.256 3.294 1.792 0.614 3.612 0.204 5.32 -0.614 2.158 -1.034 3.24 -2.782 3.678 -5.136 0.86 -4.634 -3.234 -9.31 -7.3 -8.942Zm4.34 5.226c1.408 2.436 0.664 6.638 -3.582 7.24 -1.86 0.264 -4.654 -1.228 -5.684 -3.52 -0.89 -1.976 0.934 -6.08 4.646 -6.17 1.73 -0.042 3.54 0.586 4.62 2.45Z" clip-rule="evenodd" stroke-width="1"></path>
      <path id="vector_9" fill="#171717" fill-rule="evenodd" d="M78.874 27.35c-1.748 -0.392 -3.036 0.026 -4.62 0.814 -3.008 1.5 -4.25 3.566 -4.56 5.11 -0.316 1.6 0.468 4.52 2.164 6.29 5.384 5.61 14.172 -0.044 12.4 -6.588 -0.556 -2.064 -2.796 -5.046 -5.384 -5.628Zm2.454 5.01c3.036 5.44 -4.888 9.884 -8.654 4.658 -1.016 -1.41 -1.502 -3.088 -0.108 -4.932 2.148 -2.842 7.026 -2.836 8.76 0.274Z" clip-rule="evenodd" stroke-width="1"></path>
    </g>
    <g id="box">
      <path id="vector_10" fill="#fafafa" fill-rule="evenodd" d="M306.858 85.7c-0.052 -5.008 0.878 -21.136 -0.86 -22.802 -2.878 -2.746 -10.846 -2.11 -14.514 -2.37 -6.738 -0.48 -17.41 -0.048 -24.13 0.38 0.368 8.086 1.228 33.68 1.228 33.68 28.058 0.516 35.46 0.834 37.978 -1.8 1.562 -1.632 0.334 -4.948 0.298 -7.086Z" clip-rule="evenodd" stroke-width="1"></path>
      <path id="vector_11" fill="#171717" fill-rule="evenodd" d="m308.398 85.436 -0.214 -17.276c0.062 -0.416 0.254 -2.004 0.03 -3.55 -0.364 -2.45 -1.308 -3.388 -3.31 -4.132 -2.326 -0.874 -5.186 -1.094 -7.67 -1.15 -0.206 -0.004 -194.716 0.008 -202.012 0.446 -2.032 0.12 -5.34 0.49 -7.04 1.614 -1.466 0.976 -1.416 2.048 -1.384 3.118l1.466 25.036c-0.122 1.076 -0.388 2.508 0.692 3.83 0.712 0.864 2.078 1.748 4.808 2.304 5.174 1.06 31.954 0.374 38.638 0.354 166.458 -0.496 170.188 0.414 174.386 -1.588 3.32 -1.604 1.59 -6.3 1.61 -9v-0.006ZM90.668 89.8c0.132 -1.436 -1.45 -24.224 -1.476 -25.36 -0.084 -3.07 3.3 -2.448 64.87 -2.956 10.538 0.514 111.912 0.54 112.68 0.538 -0.024 4.328 0.324 28.48 0.642 31.75 -182.088 0.354 -177.406 1.58 -176.716 -3.972Zm215.398 2.376c-2.3 1.93 -20.966 1.52 -36.266 1.588 -0.002 -2.576 -0.584 -22.26 -0.92 -31.748 0.21 0 29.964 0.012 30.738 0.07a19.94 19.94 0 0 1 3.208 0.476c2.17 0.524 2.72 0.72 2.914 2.884 0.126 1.428 -0.082 2.232 -0.082 2.648l0.356 17.36c0 -0.2 0.602 5.648 0.05 6.72l0.002 0Z" clip-rule="evenodd" stroke-width="1"></path>
      <path id="vector_12" fill="#171717" fill-rule="evenodd" d="M300.078 89.034c-1.436 -1.488 -6.166 -5.314 -7.658 -6.504 1.894 -2.068 2.744 -5.522 2.67 -7.99 -0.034 -1.15 -0.328 -2.412 -1.27 -3.94 -3.914 -6.348 -8.952 -7.154 -13.166 -4.812 -3.336 1.56 -5.774 5.01 -6.384 7.44 -1.726 6.88 7.1 16.766 16.464 10.724 1.198 1.162 5.802 5.562 7.584 6.92 1.31 1 3.6 0.066 1.756 -1.84l0.004 0.002Zm-17.18 -5.98c-4.068 -1.296 -6.412 -4.61 -6.734 -6.82 -0.136 -1.536 0.584 -3.854 1.338 -4.986 0.664 -0.998 2.42 -2.658 4.088 -3.42 0.98 -0.358 1.97 -0.438 2.958 -0.42 3.062 0.05 5.426 1.486 6.958 4.042 1.006 1.682 1.126 2.714 1.112 3.522 -0.022 1.42 -0.434 3.732 -1.416 5.212 -1.578 2.378 -5.556 3.814 -8.304 2.87Z" clip-rule="evenodd" stroke-width="1"></path>
    </g>
    <g id="document 2">
      <path id="vector_13" fill="#fafafa" fill-rule="evenodd" d="M148.244 231.264c0.14 15.22 -2.424 25.92 -2.43 38.644 -0.004 6.72 -1.282 15.434 3.064 21.224 1.964 2.616 5.022 3.98 8.016 5.048 5.814 2.074 12.21 3.698 18.372 4.118 4.026 0.274 8.044 0.908 12.076 1.15 9.41 0.564 18.886 0.116 28.32 0.496 3.786 0.152 7.51 0.896 11.294 1.134 3.102 0.196 33.256 1.148 33.464 1.156 4.154 0.138 8.262 0.628 12.41 0.134 5.252 -0.624 9.624 -0.508 12.578 -5.51 4.45 -7.536 3.548 -16.484 4.106 -25.036 0.558 -8.552 2.154 -16.986 2.966 -25.498 0.462 -4.832 -0.03 -9.648 0.826 -14.46 2.5 -14.046 2.316 -37.32 3.012 -51.566 0.232 -4.746 0.51 -9.56 0.524 -14.312 0.006 -1.824 0.552 -3.864 0.094 -5.656 -0.052 -0.202 -25.24 -37.87 -28.786 -39.89 -5.892 -3.36 -51.53 -5.906 -60.488 -6.54 -9.52 -0.67 -19.004 -2.646 -28.568 -2.22 -4.054 0.18 -19.336 -0.36 -22.336 3.72 -4.592 6.248 -3.168 17.472 -4.31 34.534 -0.748 11.172 -1.538 2.33 -3.27 46.18 -0.268 6.79 -1.03 22.594 -0.934 33.15Z" clip-rule="evenodd" stroke-width="1"></path>
      <path id="vector_14" fill="#ffffff" fill-rule="evenodd" d="M216.836 172.624c-21.81 -1.272 -37.488 -1.882 -39.416 -1.984 -1.64 -0.086 -3.776 -0.242 -5.164 0.826 -1.524 1.172 -1.714 4.458 -1.486 6.21 0.4 3.04 3.076 3.098 5.604 3.264 3.756 0.246 82.058 4.96 85.808 5.152 2.536 0.13 5.204 0.386 5.952 -2.59 0.43 -1.71 0.618 -4.994 -0.762 -6.34 -1.252 -1.22 -3.396 -1.32 -5.034 -1.426 -1.924 -0.124 -23.71 -1.84 -45.502 -3.112Z" clip-rule="evenodd" stroke-width="1"></path>
      <path id="vector_15" fill="#ffffff" fill-rule="evenodd" d="M215.704 201.298c-21.81 -1.272 -37.488 -1.882 -39.416 -1.984 -1.64 -0.086 -3.776 -0.242 -5.164 0.826 -1.524 1.172 -1.714 4.458 -1.486 6.21 0.4 3.04 3.076 3.098 5.604 3.264 3.756 0.246 82.058 4.96 85.808 5.152 2.536 0.13 5.204 0.386 5.952 -2.59 0.43 -1.71 0.618 -4.994 -0.762 -6.34 -1.252 -1.22 -3.396 -1.32 -5.034 -1.426 -1.924 -0.124 -23.71 -1.84 -45.502 -3.112Z" clip-rule="evenodd" stroke-width="1"></path>
      <path id="vector_16" fill="#fafafa" fill-rule="evenodd" d="M213.554 261.83c-21.81 -1.272 -37.488 -1.882 -39.416 -1.984 -1.64 -0.086 -3.776 -0.242 -5.164 0.826 -1.524 1.172 -1.714 4.458 -1.486 6.21 0.4 3.04 3.076 3.098 5.604 3.264 3.756 0.246 82.058 4.96 85.808 5.152 2.536 0.13 5.204 0.386 5.952 -2.59 0.43 -1.71 0.618 -4.994 -0.762 -6.34 -1.252 -1.22 -3.396 -1.32 -5.034 -1.426 -1.924 -0.124 -23.71 -1.84 -45.502 -3.112Z" clip-rule="evenodd" stroke-width="1"></path>
      <path id="vector_17" fill="#fafafa" fill-rule="evenodd" d="M214.112 231.686c-21.81 -1.272 -37.488 -1.882 -39.416 -1.984 -1.64 -0.086 -3.776 -0.242 -5.164 0.826 -1.524 1.172 -1.714 4.458 -1.486 6.21 0.4 3.04 3.076 3.098 5.604 3.264 3.756 0.246 82.058 4.96 85.808 5.152 2.536 0.13 5.204 0.386 5.952 -2.59 0.43 -1.71 0.618 -4.994 -0.762 -6.34 -1.252 -1.22 -3.396 -1.32 -5.034 -1.426 -1.924 -0.124 -23.71 -1.84 -45.502 -3.112Z" clip-rule="evenodd" stroke-width="1"></path>
      <path id="vector_18" fill="#171717" d="M296.882 159.132c-5.448 -7.584 -25.256 -37.006 -25.398 -37.214 -1.68 -2.428 -1.836 -2.184 -6.824 -3.044 -23.156 -4.002 -45.942 -3.294 -72.56 -7.054 -7.44 -1.052 -29.358 -1.77 -35.85 2.452 -0.71 0.468 -1.478 1.426 -2.072 2.946 -6.194 15.634 -6.554 106.93 -8.394 133.352 -0.756 10.52 -0.772 20.168 -0.892 29.656 0.012 3.844 -0.944 9.816 2.84 13.38 8.544 8.002 23.376 8.322 34.96 8.962 4.166 0.222 60.278 3.06 69.556 3.25 6.112 0.124 15.596 2.298 23.122 1.66 9.872 -0.83 13.016 -5.894 14.708 -15.874 1.43 -8.762 1.156 -19.996 2.04 -27.94 5.528 -47.884 2.99 -52.256 6.71 -101.1 0.078 -1.02 -1.14 -2.32 -1.944 -3.434l-0.002 0Zm-2.548 1.616 -25.102 -1.814c0.122 -4.7 1.104 -32.7 1.104 -32.956 0.482 0.68 21.954 31.658 23.998 34.77Zm-5.122 102.584c-0.918 7.892 -0.7 19.06 -2.208 27.754 -1.806 10.246 -4.972 12.606 -11.914 13.212 -7.42 0.656 -16.78 -1.474 -22.788 -1.57 -22.476 -0.36 -47.006 -1.682 -69.432 -3.21 -10.33 -0.692 -25.3 -1.2 -32.846 -8.334 -2.586 -2.43 -1.818 -7.498 -1.768 -10.932 0.012 -9.13 0.076 -20.468 0.666 -29.464 1.794 -26.184 2.2 -101.102 5.764 -123.264 0.652 -4.048 1.502 -7.166 2.344 -9.134 0.316 -0.74 0.56 -1.292 0.902 -1.522 5.608 -3.642 27.02 -2.86 33.704 -1.902 27.638 3.958 39.932 2.41 75.906 7.488 -0.554 3.906 -0.61 5.212 -1.378 37.846a1.524 1.524 0 0 0 1.416 1.544l28.17 2c-3.446 48.242 -0.738 49.182 -6.54 99.488h0.002Z" stroke-width="1"></path>
      <path id="vector_19" fill="#171717" fill-rule="evenodd" d="M173.98 169.146c-2.4 0.418 -3.848 1.718 -4.444 4.22a13.172 13.172 0 0 0 -0.206 4.496c0.244 1.738 1.042 2.772 2.092 3.42 2.06 1.268 0.072 0.92 90.71 5.954 3.552 0.198 6.23 0.01 7.126 -3.45 0.596 -2.3 0.638 -5.814 -1.054 -7.476 -1.496 -1.47 -3.702 -1.632 -5.778 -1.78 -0.212 -0.014 -83.39 -6.266 -88.448 -5.384Zm42.772 4.896c48.39 2.65 47.158 2.91 48.43 3.27 1.582 0.446 1.962 1.204 2.076 2.978a10.116 10.116 0 0 1 -0.264 2.926c-0.536 2.136 -2.442 1.848 -4.76 1.734 0 0 -83.412 -5.184 -85.774 -5.368 -2.348 -0.184 -4.036 -0.202 -4.252 -2.094 -0.14 -1.24 0 -4.06 0.988 -4.802 1.166 -0.88 0.048 -1.026 43.556 1.356Z" clip-rule="evenodd" stroke-width="1"></path>
      <path id="vector_20" fill="#171717" fill-rule="evenodd" d="M172.846 197.82c-2.4 0.418 -3.846 1.718 -4.442 4.22a13.172 13.172 0 0 0 -0.206 4.496c0.244 1.738 1.042 2.772 2.092 3.42 2.058 1.268 0.072 0.922 90.71 5.954 3.552 0.198 6.23 0.01 7.126 -3.45 0.596 -2.298 0.638 -5.814 -1.054 -7.476 -1.496 -1.47 -3.702 -1.632 -5.778 -1.78 -0.212 -0.014 -83.388 -6.266 -88.446 -5.384h-0.002Zm42.774 4.896c48.39 2.65 47.158 2.91 48.43 3.27 1.582 0.446 1.962 1.204 2.076 2.978a10.116 10.116 0 0 1 -0.264 2.926c-0.536 2.136 -2.442 1.848 -4.76 1.734 0 0 -83.412 -5.184 -85.774 -5.368 -2.348 -0.184 -4.036 -0.202 -4.252 -2.094 -0.14 -1.238 0 -4.058 0.988 -4.802 1.166 -0.878 0.048 -1.026 43.556 1.356Z" clip-rule="evenodd" stroke-width="1"></path>
      <path id="vector_21" fill="#171717" fill-rule="evenodd" d="M171.252 228.208c-2.4 0.418 -3.846 1.718 -4.44 4.22a13.172 13.172 0 0 0 -0.208 4.496c0.244 1.738 1.042 2.772 2.092 3.42 2.06 1.268 0.072 0.922 90.71 5.954 3.552 0.198 6.23 0.01 7.126 -3.45 0.596 -2.298 0.638 -5.814 -1.054 -7.476 -1.496 -1.47 -3.702 -1.632 -5.778 -1.78 -0.212 -0.014 -83.39 -6.266 -88.448 -5.384Zm42.774 4.896c48.39 2.65 47.158 2.91 48.43 3.27 1.582 0.446 1.962 1.204 2.076 2.978a10.116 10.116 0 0 1 -0.264 2.926c-0.536 2.136 -2.442 1.848 -4.76 1.734 0 0 -83.412 -5.184 -85.774 -5.368 -2.348 -0.184 -4.036 -0.202 -4.252 -2.094 -0.14 -1.238 0 -4.058 0.988 -4.802 1.166 -0.878 0.048 -1.026 43.556 1.356Z" clip-rule="evenodd" stroke-width="1"></path>
      <path id="vector_22" fill="#171717" fill-rule="evenodd" d="M170.694 258.352c-2.4 0.418 -3.846 1.718 -4.44 4.22a13.172 13.172 0 0 0 -0.208 4.496c0.244 1.738 1.042 2.772 2.092 3.42 2.06 1.268 0.072 0.922 90.71 5.954 3.552 0.198 6.23 0.01 7.126 -3.45 0.596 -2.298 0.638 -5.814 -1.054 -7.476 -1.496 -1.47 -3.702 -1.632 -5.778 -1.78 -0.212 -0.014 -83.39 -6.266 -88.448 -5.384Zm42.774 4.896c48.39 2.65 47.158 2.91 48.43 3.27 1.582 0.446 1.962 1.204 2.076 2.978a10.116 10.116 0 0 1 -0.264 2.926c-0.536 2.136 -2.442 1.848 -4.76 1.734 0 0 -83.412 -5.184 -85.774 -5.368 -2.348 -0.184 -4.036 -0.202 -4.252 -2.094 -0.14 -1.238 0 -4.058 0.988 -4.802 1.166 -0.878 0.048 -1.026 43.556 1.356Z" clip-rule="evenodd" stroke-width="1"></path>
    </g>
    <g id="document 1">
      <path id="vector_23" fill="#fafafa" fill-rule="evenodd" d="M121.908 285.204c3.6 14.788 3.54 25.79 6.432 38.184 1.526 6.544 2.266 15.322 7.814 19.97 2.506 2.1 5.796 2.732 8.956 3.09 6.132 0.696 12.732 0.822 18.828 -0.172 3.98 -0.65 8.04 -0.948 12.02 -1.63 9.294 -1.594 18.418 -4.186 27.692 -5.964 3.72 -0.714 7.516 -0.836 11.256 -1.466 3.066 -0.516 32.644 -6.452 32.85 -6.494 4.076 -0.81 8.188 -1.27 12.116 -2.694 4.972 -1.804 9.256 -2.684 10.994 -8.228 2.618 -8.352 -0.298 -16.858 -1.702 -25.312 -1.402 -8.442 -1.77 -17.032 -2.916 -25.504 -0.65 -4.81 -2.226 -9.388 -2.486 -14.268 -0.762 -14.246 -6.24 -36.864 -8.806 -50.898 -0.854 -4.676 -1.68 -9.424 -2.748 -14.056 -0.41 -1.78 -0.342 -3.888 -1.196 -5.528 -1.392 -2.668 -4.84 -4.22 -7.048 -6.208 -6.876 -6.196 -25.838 -24.83 -30.064 -26.084 -6.5 -1.928 -51.522 5.98 -60.388 7.404 -9.422 1.514 -19.106 1.748 -28.324 4.34 -3.908 1.098 -18.91 4.052 -20.902 8.708 -3.05 7.128 0.892 17.732 3.664 34.606 1.816 11.05 -0.968 2.62 7.328 45.714 1.284 6.67 4.14 22.234 6.638 32.49h-0.008Z" clip-rule="evenodd" stroke-width="1"></path>
      <path id="vector_24" fill="#ffffff" fill-rule="evenodd" d="M175.052 208.324c-21.44 4.2 -36.774 7.514 -38.668 7.896 -1.612 0.324 -3.716 0.706 -4.796 2.086 -1.184 1.514 -0.55 4.744 0.108 6.384 1.142 2.844 3.75 2.234 6.24 1.766 3.698 -0.696 80.706 -15.636 84.388 -16.384 2.488 -0.506 5.136 -0.924 5.118 -3.992 -0.01 -1.764 -0.644 -4.99 -2.316 -5.95 -1.516 -0.87 -3.618 -0.432 -5.23 -0.128 -1.894 0.358 -23.422 4.126 -44.844 8.322Z" clip-rule="evenodd" stroke-width="1"></path>
      <path id="vector_25" fill="#ffffff" fill-rule="evenodd" d="M181.098 236.374c-21.44 4.2 -36.774 7.514 -38.668 7.896 -1.612 0.324 -3.716 0.706 -4.796 2.086 -1.184 1.514 -0.55 4.744 0.108 6.384 1.14 2.844 3.75 2.234 6.24 1.766 3.698 -0.696 80.706 -15.636 84.388 -16.384 2.488 -0.506 5.136 -0.924 5.118 -3.992 -0.01 -1.764 -0.644 -4.99 -2.316 -5.95 -1.516 -0.87 -3.618 -0.432 -5.23 -0.128 -1.894 0.358 -23.422 4.126 -44.844 8.322Z" clip-rule="evenodd" stroke-width="1"></path>
      <path id="vector_26" fill="#ffffff" fill-rule="evenodd" d="M194.094 295.534c-21.44 4.2 -36.774 7.514 -38.668 7.896 -1.612 0.324 -3.716 0.706 -4.796 2.086 -1.184 1.514 -0.55 4.744 0.108 6.384 1.142 2.844 3.75 2.234 6.24 1.766 3.698 -0.696 80.706 -15.636 84.388 -16.384 2.488 -0.506 5.136 -0.924 5.118 -3.992 -0.01 -1.764 -0.644 -4.99 -2.316 -5.95 -1.516 -0.87 -3.618 -0.432 -5.23 -0.128 -1.894 0.358 -23.422 4.126 -44.844 8.322Z" clip-rule="evenodd" stroke-width="1"></path>
      <path id="vector_27" fill="#ffffff" fill-rule="evenodd" d="M187.126 266.202c-21.44 4.2 -36.774 7.514 -38.668 7.896 -1.612 0.324 -3.716 0.706 -4.796 2.086 -1.184 1.514 -0.55 4.744 0.108 6.384 1.142 2.844 3.75 2.234 6.24 1.766 3.7 -0.696 80.706 -15.636 84.388 -16.384 2.488 -0.506 5.136 -0.924 5.118 -3.992 -0.01 -1.764 -0.644 -4.99 -2.316 -5.95 -1.516 -0.87 -3.618 -0.432 -5.23 -0.128 -1.894 0.358 -23.422 4.126 -44.844 8.322Z" clip-rule="evenodd" stroke-width="1"></path>
      <path id="vector_28" fill="#171717" d="M269.38 284.002c-5.49 -47.628 -8.984 -51.762 -16.48 -99.972 -0.15 -0.962 -1.482 -1.864 -2.674 -2.902 -6.118 -5.35 -32.992 -30.262 -33.204 -30.456 -0.428 -0.386 -1.848 -1.688 -2.65 -1.634 -30.396 1.5 -47.538 7.24 -76.948 9.874 -7.484 0.672 -28.99 4.958 -34.352 10.548 -0.584 0.618 -1.114 1.726 -1.348 3.34 -2.478 16.7 17.82 104.748 22.184 131.762 1.654 10.404 3.846 19.848 5.882 29.08 0.896 3.78 1.306 9.77 5.812 12.382 10.142 5.846 24.652 2.784 36.08 0.768 4.11 -0.732 59.394 -10.742 68.472 -12.67 9.218 -1.958 26.572 -0.938 31.734 -9.852 5.01 -8.77 -0.996 -27.63 -2.506 -40.27l-0.002 0.002Zm-21.27 -100.72 -24.854 3.95c-0.952 -4.602 -6.37 -32.092 -6.426 -32.34 5.87 5.12 27.622 24.92 31.28 28.39Zm20.996 139.374c-4.154 7.204 -21.278 6.64 -29.6 8.448 -21.934 4.758 -46.19 9.07 -68.34 12.68 -10.24 1.68 -24.914 4.586 -33.88 -0.638 -3.084 -1.788 -3.492 -6.952 -4.21 -10.244 -2.068 -8.892 -4.584 -19.942 -6.06 -28.842 -5.928 -36.442 -25.146 -114.322 -22.244 -130.768 0.14 -0.792 0.25 -1.386 0.532 -1.686 4.628 -4.816 25.636 -8.934 32.386 -9.524 28.13 -2.466 48.552 -8.172 75.62 -9.97 0.356 3.946 0.546 4.936 7.272 37.148a1.526 1.526 0 0 0 1.73 1.18l27.886 -4.46c7.976 49.91 10.542 48.61 16.28 98.362 1.344 11.764 6.974 30.858 2.63 38.316l-0.002 -0.002Z" stroke-width="1"></path>
      <path id="vector_29" fill="#171717" fill-rule="evenodd" d="M132.68 215.63c-2.22 1.002 -3.3 2.622 -3.254 5.192 0.028 1.588 0.47 3.316 0.92 4.406 0.67 1.622 1.7 2.426 2.876 2.792 2.31 0.716 0.3 0.876 89.334 -16.83 3.49 -0.694 6.036 -1.542 6.042 -5.116 0.004 -2.372 -0.83 -5.79 -2.884 -6.98 -1.814 -1.048 -3.992 -0.656 -6.038 -0.282 -0.208 0.038 -82.32 14.704 -86.998 16.818Zm42.644 -5.914c47.524 -9.488 46.396 -8.928 47.718 -8.896 1.642 0.038 2.2 0.676 2.752 2.368 0.33 1.014 0.468 2.12 0.474 2.9 0.012 2.202 -1.904 2.398 -4.178 2.864 0 0 -82.076 15.758 -84.406 16.168 -2.318 0.408 -3.96 0.81 -4.638 -0.97 -0.444 -1.164 -1.012 -3.93 -0.24 -4.896 0.912 -1.14 -0.21 -1.004 42.52 -9.536l0 -0.002Z" clip-rule="evenodd" stroke-width="1"></path>
      <path id="vector_30" fill="#171717" fill-rule="evenodd" d="M138.724 243.68c-2.22 1.002 -3.298 2.622 -3.252 5.192 0.028 1.588 0.47 3.316 0.92 4.406 0.67 1.622 1.7 2.426 2.876 2.792 2.31 0.716 0.3 0.876 89.334 -16.83 3.49 -0.694 6.036 -1.542 6.042 -5.116 0.004 -2.372 -0.83 -5.79 -2.884 -6.978 -1.814 -1.05 -3.992 -0.658 -6.038 -0.284 -0.208 0.038 -82.32 14.704 -86.998 16.818Zm42.646 -5.914c47.524 -9.488 46.396 -8.928 47.718 -8.896 1.642 0.038 2.2 0.676 2.752 2.368 0.33 1.014 0.468 2.12 0.474 2.9 0.012 2.202 -1.904 2.398 -4.178 2.864 0 0 -82.076 15.758 -84.406 16.168 -2.318 0.408 -3.96 0.81 -4.638 -0.97 -0.444 -1.164 -1.012 -3.93 -0.24 -4.896 0.912 -1.14 -0.21 -1.004 42.52 -9.536l0 -0.002Z" clip-rule="evenodd" stroke-width="1"></path>
      <path id="vector_31" fill="#171717" fill-rule="evenodd" d="M144.752 273.51c-2.22 1.002 -3.298 2.622 -3.252 5.192 0.028 1.588 0.47 3.316 0.92 4.406 0.67 1.622 1.7 2.426 2.876 2.792 2.31 0.716 0.3 0.876 89.334 -16.83 3.49 -0.694 6.036 -1.542 6.042 -5.116 0.004 -2.372 -0.83 -5.79 -2.884 -6.978 -1.814 -1.05 -3.992 -0.658 -6.038 -0.284 -0.208 0.038 -82.32 14.704 -86.998 16.818Zm42.646 -5.914c47.524 -9.488 46.396 -8.928 47.718 -8.896 1.642 0.038 2.2 0.676 2.752 2.368 0.33 1.014 0.468 2.12 0.474 2.9 0.012 2.202 -1.904 2.398 -4.178 2.864 0 0 -82.076 15.758 -84.406 16.168 -2.318 0.408 -3.96 0.81 -4.638 -0.97 -0.444 -1.164 -1.012 -3.93 -0.24 -4.896 0.912 -1.14 -0.21 -1.004 42.52 -9.536l-0.002 -0.002Z" clip-rule="evenodd" stroke-width="1"></path>
      <path id="vector_32" fill="#171717" fill-rule="evenodd" d="M151.72 302.84c-2.22 1.002 -3.298 2.622 -3.252 5.192 0.028 1.588 0.47 3.316 0.92 4.406 0.67 1.622 1.7 2.426 2.876 2.792 2.31 0.716 0.3 0.876 89.334 -16.83 3.49 -0.694 6.036 -1.542 6.042 -5.116 0.004 -2.372 -0.83 -5.79 -2.884 -6.978 -1.814 -1.05 -3.992 -0.658 -6.038 -0.284 -0.208 0.038 -82.32 14.704 -86.998 16.818Zm42.646 -5.914c47.524 -9.488 46.396 -8.928 47.718 -8.896 1.642 0.038 2.2 0.676 2.752 2.368 0.33 1.014 0.468 2.12 0.474 2.9 0.012 2.202 -1.904 2.398 -4.178 2.864 0 0 -82.076 15.758 -84.406 16.168 -2.318 0.408 -3.96 0.81 -4.638 -0.97 -0.444 -1.164 -1.012 -3.93 -0.24 -4.896 0.912 -1.14 -0.21 -1.004 42.52 -9.536l0 -0.002Z" clip-rule="evenodd" stroke-width="1"></path>
    </g>
    <g id="magnifier">
      <path id="vector_33" fill="#ffffff" fill-rule="evenodd" d="M306.234 305.182c3.934 -4.444 11.704 -14.166 14.96 -32.29 1.088 -6.116 0.294 -12.362 0.166 -18.516 -0.152 -7.24 -5.916 -14.008 -8.062 -17.236 -1.494 -2.234 -2.62 -4.634 -4.28 -6.768 -7.286 -9.368 -16.768 -16.932 -28.372 -19.478 -2.214 -0.49 -4.704 -1.27 -6.972 -1.146 -6.66 0.36 -12.212 0.574 -18.558 2.46 -11.194 3.338 -14.344 5.438 -22.69 12.628 -13.632 11.776 -23.742 30.206 -20.55 48.828 1.088 6.352 3.966 10.944 7.288 16.312 4.648 7.49 10.57 12.916 17.562 18.102 6.302 4.686 6.372 6.648 20.606 10.224 8.244 2.072 8.386 1.78 16.548 0.642 10.68 -1.494 17.138 -4.08 26.196 -10.052l8.336 10.892 6.01 -3.236 -8.186 -11.368 -0.002 0.002Z" clip-rule="evenodd" stroke-width="1"></path>
      <path id="vector_34" fill="#171717" fill-rule="evenodd" d="M282.508 224.826c-10.494 -4.062 -20.678 -3.582 -30.86 1.21 -8.734 4.11 -15.092 10.014 -19.982 17.416 -5.234 7.922 -7.84 16.018 -6.55 25.588 0.846 6.278 3.796 11.802 7.358 17.038 6.214 9.136 14.726 15.028 25.24 18.568 10.174 3.424 20.288 1.112 29.984 -3.496 12.304 -5.846 18.024 -15.828 20.41 -29.012 1.102 -6.086 1.778 -12.75 -0.28 -18.592 -4.602 -13.06 -16.86 -25.446 -25.32 -28.72Zm22.5 29.708c1.862 5.354 1.194 11.488 0.194 17.082 -2.21 12.358 -7.394 21.548 -18.742 26.916 -9.022 4.268 -18.352 6.404 -27.784 3.252 -9.932 -3.318 -18.08 -8.742 -24.04 -17.202 -3.336 -4.736 -6.414 -10.102 -7.148 -15.852 -1.028 -8.038 1.816 -17.25 6.236 -23.918 4.092 -6.172 11.418 -12.944 19.046 -16.33 8.236 -3.656 18.566 -4.212 28.528 -0.474 10.294 3.864 20.014 15.884 23.712 26.524l-0.002 0.002Z" clip-rule="evenodd" stroke-width="1"></path>
      <path id="vector_35" fill="#171717" fill-rule="evenodd" d="M365.144 372.572c-1.74 -6.578 -19.066 -27.276 -25.32 -33.968 -6.996 -7.468 -16.83 -20.1 -22.024 -23.178a7.396 7.396 0 0 0 -3.62 -1.096c-1.774 -2.472 -5.808 -7.664 -6.912 -9.086 9.202 -8.708 13.256 -19.606 15.188 -31.966 1.284 -8.216 1.98 -17.138 -0.986 -24.91 -3.606 -9.31 -8.95 -16.498 -16.048 -23.704 -0.35 0.306 -7.156 -9.33 -19.206 -13.502 -7.024 -2.352 -14.152 -3.356 -21.186 -2.834 -34.178 2.534 -68.062 43.08 -51.042 77.018 1.864 3.714 4.17 7.23 6.608 10.554 8.858 12.094 20.664 19.406 34.872 23.596 3.816 1.108 10.662 2.814 20.892 0.836 8.054 -1.556 17.132 -5.37 23.538 -9.408 0.804 1.212 4.148 5.744 6.188 8.348 -0.732 2.552 0.344 5.71 1.496 8.09 3.204 6.582 6.49 8.87 16.978 20.722 4.406 4.96 8.832 9.916 13.634 15.066 4.406 4.726 9.684 14.008 16.228 17.304 5.194 2.618 12.056 -2.754 10.72 -7.886l0.002 0.004Zm-70.594 -61.9c-12.22 6.266 -25.104 9.782 -38.234 5.928 -13.636 -3.934 -25.11 -10.97 -33.608 -22.266 -4.844 -6.444 -9.056 -13.408 -10.334 -21.296 -1.68 -11.292 1.836 -23.616 7.828 -33.134 5.496 -8.72 14.87 -17.9 25.562 -23.224 12.172 -5.818 26.168 -6.746 39.37 -2.292 11.948 3.906 27.214 18.308 33.548 35.046 2.766 7.212 2.04 15.746 0.86 23.388 -2.652 17.142 -9.57 29.902 -24.99 37.848l-0.002 0.002Zm13.062 6.234a284.04 284.04 0 0 0 -5.794 -7.222c1.346 -0.936 2.58 -1.92 3.754 -2.926 0.9 1.368 3.82 5.382 5.742 7.978a9.256 9.256 0 0 0 -3.7 2.17h-0.002Z" clip-rule="evenodd" stroke-width="1"></path>
    </g>
    <g id="details">
      <path id="vector_36" fill="#171717" fill-rule="evenodd" d="M99.546 156.648c0.014 -8.058 -7.04 -10.348 -6.996 -15.99 0.022 -2.794 1.386 -5.642 0.684 -8.874 -0.776 -3.566 -3.18 -5.162 -5.954 -7.166 -3.258 -2.354 -3.736 -3.55 -4.1 -7.488 -0.272 -2.912 -0.42 -6.156 -2.118 -8.254a1.006 1.006 0 0 0 -1.692 1.086c1.626 3.154 1.1 6.95 1.72 10.19 1.31 6.812 8.474 6.914 9.592 12.18 0.528 2.49 -0.74 5.414 -0.768 8.304 -0.028 3.088 1.552 5.614 3.492 8.018 2.066 2.562 3.648 4.32 3.962 7.928 0.084 0.96 2.176 1.296 2.18 0.066Z" clip-rule="evenodd" stroke-width="1"></path>
      <path id="vector_37" fill="#171717" fill-rule="evenodd" d="M88.388 177.426c-2.226 -2.358 -5.972 -3.376 -8.866 -4.32 -3.094 -1.012 -3.74 -1.12 -4.724 -4.392 -0.78 -2.604 -1.284 -4.728 -3.632 -6.454 -2.406 -1.768 -5.148 -2.154 -7.914 -2.77 -4.57 -1.02 -5.166 -2.136 -6.08 -4.358 -1.16 -2.808 -1.936 -5.44 -4.85 -6.324a1.026 1.026 0 0 0 -0.808 1.882c0.41 0.232 0.696 0.554 0.984 0.868 2.79 3.03 1.388 7.512 7.454 9.81 3.126 1.184 6.99 1.244 9.544 3.152 3.622 2.706 1.146 8.356 7.464 10.64 2.92 1.052 6.994 1.686 9.512 3.564 1.328 0.99 2.742 -0.424 1.92 -1.294l-0.004 -0.004Z" clip-rule="evenodd" stroke-width="1"></path>
      <path id="vector_38" fill="#171717" fill-rule="evenodd" d="M74.142 197.674c-4.786 -1.18 -8.878 2.192 -13.248 1.662 -1.588 -0.192 -3.026 -3.018 -5.566 -3.896 -2.798 -0.966 -5.38 -0.17 -8.178 0.606 -3.856 1.07 -4.398 0.594 -6.246 -0.54 -1.228 -0.758 -2.348 -1.354 -3.46 -1.164a1.166 1.166 0 0 0 -0.174 2.324c0.164 0.05 0.28 0.172 0.432 0.236 1.116 0.47 2.024 1.29 3.208 1.904 4.622 2.398 9.412 -1.904 13.408 -0.48 2.684 0.954 3.096 5.234 9.76 3.862 1.856 -0.382 3.614 -1.128 5.428 -1.65 1.526 -0.438 3.044 -0.216 4.846 -0.312 3.014 -0.162 1.38 -2.156 -0.214 -2.548l0.004 -0.004Z" clip-rule="evenodd" stroke-width="1"></path>
    </g>
    <g id="cross">
      <path id="vector_39" fill="#fafafa" fill-rule="evenodd" d="M252.672 239.068c3.692 0.194 10.832 9.324 12.992 12.324l15.67 -13.242 14.206 14.384c-12.726 11.048 -10.944 9.304 -15.478 13.99 0 0 8.766 10.644 10.968 14.446 1.588 2.742 -10.326 10.756 -11.45 10.074 -2.99 -1.816 -10.058 -13.308 -13.02 -11.89 -4.694 2.246 -13.354 13.118 -15.484 12.484 -1.68 -0.5 -11.032 -10.114 -11.476 -11.984 -1.05 -4.426 13.316 -11.798 12.714 -14.684 -0.848 -4.074 -12.546 -13.184 -12.322 -14.934 0.31 -2.426 8.402 -11.194 12.68 -10.968Z" clip-rule="evenodd" stroke-width="1"></path>
      <path id="vector_40" fill="#171717" fill-rule="evenodd" d="M296.454 253.59a1.394 1.394 0 0 0 0.078 -2.034l-14.264 -14.328a1.314 1.314 0 0 0 -1.78 -0.082l-14.556 12.12c-2.52 -3.394 -8.952 -11.41 -13.186 -11.562v0.028c-4.046 -0.98 -13.764 8.424 -14.232 12.116 -0.296 2.406 4.766 5.84 9.882 11.676 2.888 3.296 2.272 3.542 2.504 3.574 0.206 0.034 -0.192 0.432 -0.392 0.706 -2.694 3.62 -13.462 9.124 -12.302 14.184 0.606 2.65 10.608 12.334 12.506 12.874 3.358 0.958 11.084 -10.066 16.374 -12.61 0.062 -0.03 0.13 0.01 0.206 0.034 0.504 0.168 1.084 0.848 1.286 1.032 0.452 0.404 0.988 0.82 1.508 1.328 3.238 3.148 7.01 8.142 8.976 9.258 0.284 0.162 0.926 0.242 1.8 -0.092 3.714 -1.42 13.408 -7.748 11.278 -11.48 -1.832 -3.188 -7.94 -10.84 -10.26 -13.708 4.394 -4.368 1.284 -1.542 14.576 -13.032l-0.002 -0.002Zm-17.362 11.996a1.34 1.34 0 0 0 -0.072 1.794c2.326 2.808 9.012 11.034 10.87 14.184 -0.27 2.11 -7.574 7.394 -8.924 8.096 -0.386 0.2 -0.836 0.334 -1.058 0.394 -3.226 -2.428 -9.43 -14.454 -13.874 -11.996 -4.406 2.134 -10.6 10.082 -14.724 12.294 -0.776 -0.456 -5.616 -4.906 -9.228 -9.498 -1.078 -1.366 -1.412 -1.488 -0.82 -2.602 1.6 -3.03 9.048 -8.206 11.304 -10.624 1.006 -1.084 1.294 -2.166 1.158 -2.952 -0.86 -4.164 -9.722 -11.226 -12.188 -14.704 0.752 -2.042 6.892 -8.674 10.736 -9.456 0.12 -0.024 0.214 -0.098 0.328 -0.114 -0.012 0.352 1.16 -1.044 8.126 7.164 4.022 4.742 3.742 5.154 4.758 5.276a1.47 1.47 0 0 0 1.124 -0.334l14.648 -12.566 12.25 12.506c-11.91 10.352 -8.798 7.42 -14.414 13.132v0.006Z" clip-rule="evenodd" stroke-width="1"></path>
    </g>
  </g>
</svg>